<svg width="98" height="42" viewBox="0 0 98 42" fill="none" xmlns="http://www.w3.org/2000/svg">
<rect x="0.70582" y="19.7738" width="28.7526" height="28.7526" rx="5.5" transform="rotate(-41.5423 0.70582 19.7738)" stroke="white"/>
<rect x="15.5821" y="19.7738" width="28.7526" height="28.7526" rx="5.5" transform="rotate(-41.5423 15.5821 19.7738)" fill="white" stroke="white"/>
<path d="M69.6309 23.2109H65.1123L64.0869 26H63.2051L66.9717 16.0469H67.7715L71.5381 26H70.6631L69.6309 23.2109ZM65.3721 22.4932H69.3643L67.3682 17.0723L65.3721 22.4932ZM83.1619 16.7646H78.0076V20.3672H80.4754C81.1544 20.3672 81.7423 20.4811 82.2391 20.709C82.7358 20.9323 83.1141 21.2559 83.3738 21.6797C83.6382 22.099 83.7703 22.5957 83.7703 23.1699C83.7703 24.0495 83.4764 24.7422 82.8885 25.248C82.3006 25.7493 81.4871 26 80.448 26H77.16V16.0469H83.1619V16.7646ZM78.0076 21.085V25.2891H80.4686C81.2387 25.2891 81.8403 25.0999 82.2732 24.7217C82.7062 24.3389 82.9227 23.8171 82.9227 23.1562C82.9227 22.5273 82.713 22.0283 82.2937 21.6592C81.8745 21.2855 81.2866 21.0941 80.5301 21.085H78.0076ZM92.441 21.3311H91.0738V26H90.233V16.0469H91.0738V20.6133H92.4L96.2486 16.0469H97.3082L93.2203 20.9414L97.609 26H96.5631L92.441 21.3311Z" fill="white"/>
</svg>
